<mxfile host="app.diagrams.net" agent="Mozilla/5.0 (Windows NT 10.0; Win64; x64) AppleWebKit/537.36 (KHTML, like Gecko) Chrome/120.0.0.0 Safari/537.36" version="27.1.4">
  <diagram name="第 1 页" id="nunuXxlUoUK3u_dretGn">
    <mxGraphModel dx="1281" dy="670" grid="0" gridSize="10" guides="1" tooltips="1" connect="1" arrows="1" fold="1" page="1" pageScale="1" pageWidth="1000" pageHeight="700" math="0" shadow="0">
      <root>
        <mxCell id="0" />
        <mxCell id="1" parent="0" />
        <mxCell id="3g5GpzLGJH1cqkXIKAGz-2" value="体检服务器（内网）&lt;div&gt;10.80.129.62&lt;/div&gt;" style="rounded=1;whiteSpace=wrap;html=1;" vertex="1" parent="1">
          <mxGeometry x="271" y="150" width="120" height="60" as="geometry" />
        </mxCell>
        <mxCell id="3g5GpzLGJH1cqkXIKAGz-11" value="导检服务器（内网）&lt;div&gt;10.80.129.60&lt;/div&gt;" style="rounded=1;whiteSpace=wrap;html=1;" vertex="1" parent="1">
          <mxGeometry x="271" y="365" width="120" height="60" as="geometry" />
        </mxCell>
        <mxCell id="3g5GpzLGJH1cqkXIKAGz-12" value="前置机&lt;div&gt;10.190.128.20&lt;/div&gt;" style="rounded=1;whiteSpace=wrap;html=1;" vertex="1" parent="1">
          <mxGeometry x="589" y="254" width="120" height="60" as="geometry" />
        </mxCell>
        <mxCell id="3g5GpzLGJH1cqkXIKAGz-16" value="" style="endArrow=classic;html=1;rounded=0;entryX=1;entryY=0.5;entryDx=0;entryDy=0;exitX=0;exitY=1;exitDx=0;exitDy=0;" edge="1" parent="1" source="3g5GpzLGJH1cqkXIKAGz-12" target="3g5GpzLGJH1cqkXIKAGz-11">
          <mxGeometry width="50" height="50" relative="1" as="geometry">
            <mxPoint x="630" y="368" as="sourcePoint" />
            <mxPoint x="680" y="318" as="targetPoint" />
          </mxGeometry>
        </mxCell>
        <mxCell id="3g5GpzLGJH1cqkXIKAGz-19" value="获取导检信息" style="text;html=1;align=center;verticalAlign=middle;whiteSpace=wrap;rounded=0;" vertex="1" parent="1">
          <mxGeometry x="472" y="355" width="86" height="30" as="geometry" />
        </mxCell>
        <mxCell id="3g5GpzLGJH1cqkXIKAGz-20" value="" style="endArrow=classic;html=1;rounded=0;entryX=0;entryY=0;entryDx=0;entryDy=0;" edge="1" parent="1" target="3g5GpzLGJH1cqkXIKAGz-12">
          <mxGeometry width="50" height="50" relative="1" as="geometry">
            <mxPoint x="391" y="174" as="sourcePoint" />
            <mxPoint x="441" y="124" as="targetPoint" />
          </mxGeometry>
        </mxCell>
        <mxCell id="3g5GpzLGJH1cqkXIKAGz-21" value="" style="endArrow=classic;html=1;rounded=0;" edge="1" parent="1">
          <mxGeometry width="50" height="50" relative="1" as="geometry">
            <mxPoint x="587" y="273" as="sourcePoint" />
            <mxPoint x="394" y="194" as="targetPoint" />
          </mxGeometry>
        </mxCell>
        <mxCell id="3g5GpzLGJH1cqkXIKAGz-22" value="获取体检报告等信息" style="text;html=1;align=center;verticalAlign=middle;whiteSpace=wrap;rounded=0;" vertex="1" parent="1">
          <mxGeometry x="417" y="242" width="120" height="30" as="geometry" />
        </mxCell>
        <mxCell id="3g5GpzLGJH1cqkXIKAGz-24" value="客户手机端" style="rounded=1;whiteSpace=wrap;html=1;" vertex="1" parent="1">
          <mxGeometry x="861" y="254" width="120" height="60" as="geometry" />
        </mxCell>
        <mxCell id="3g5GpzLGJH1cqkXIKAGz-26" value="外网" style="text;html=1;align=center;verticalAlign=middle;whiteSpace=wrap;rounded=0;" vertex="1" parent="1">
          <mxGeometry x="768" y="254" width="60" height="30" as="geometry" />
        </mxCell>
        <mxCell id="3g5GpzLGJH1cqkXIKAGz-27" value="" style="endArrow=classic;html=1;rounded=0;entryX=1;entryY=0.5;entryDx=0;entryDy=0;exitX=0;exitY=0.5;exitDx=0;exitDy=0;" edge="1" parent="1" source="3g5GpzLGJH1cqkXIKAGz-24" target="3g5GpzLGJH1cqkXIKAGz-12">
          <mxGeometry width="50" height="50" relative="1" as="geometry">
            <mxPoint x="859" y="284" as="sourcePoint" />
            <mxPoint x="752" y="308" as="targetPoint" />
          </mxGeometry>
        </mxCell>
        <mxCell id="3g5GpzLGJH1cqkXIKAGz-28" value="导检、微信查报告等功能" style="text;html=1;align=center;verticalAlign=middle;whiteSpace=wrap;rounded=0;" vertex="1" parent="1">
          <mxGeometry x="705" y="287" width="166" height="30" as="geometry" />
        </mxCell>
        <mxCell id="3g5GpzLGJH1cqkXIKAGz-31" value="院内平台、其他系统" style="rounded=1;whiteSpace=wrap;html=1;" vertex="1" parent="1">
          <mxGeometry x="29" y="284" width="120" height="60" as="geometry" />
        </mxCell>
        <mxCell id="3g5GpzLGJH1cqkXIKAGz-32" value="" style="endArrow=classic;html=1;rounded=0;entryX=0.013;entryY=0.397;entryDx=0;entryDy=0;entryPerimeter=0;" edge="1" parent="1" target="3g5GpzLGJH1cqkXIKAGz-2">
          <mxGeometry width="50" height="50" relative="1" as="geometry">
            <mxPoint x="76" y="282" as="sourcePoint" />
            <mxPoint x="253" y="184" as="targetPoint" />
          </mxGeometry>
        </mxCell>
        <mxCell id="3g5GpzLGJH1cqkXIKAGz-33" value="" style="endArrow=classic;html=1;rounded=0;" edge="1" parent="1">
          <mxGeometry width="50" height="50" relative="1" as="geometry">
            <mxPoint x="269" y="195" as="sourcePoint" />
            <mxPoint x="109" y="283" as="targetPoint" />
          </mxGeometry>
        </mxCell>
        <mxCell id="3g5GpzLGJH1cqkXIKAGz-35" value="" style="endArrow=classic;html=1;rounded=0;" edge="1" parent="1">
          <mxGeometry width="50" height="50" relative="1" as="geometry">
            <mxPoint x="319" y="361" as="sourcePoint" />
            <mxPoint x="319" y="211" as="targetPoint" />
          </mxGeometry>
        </mxCell>
        <mxCell id="3g5GpzLGJH1cqkXIKAGz-36" value="" style="endArrow=classic;html=1;rounded=0;exitX=0.62;exitY=1.037;exitDx=0;exitDy=0;exitPerimeter=0;" edge="1" parent="1">
          <mxGeometry width="50" height="50" relative="1" as="geometry">
            <mxPoint x="338.4000000000001" y="212.22000000000003" as="sourcePoint" />
            <mxPoint x="338" y="362" as="targetPoint" />
          </mxGeometry>
        </mxCell>
        <mxCell id="3g5GpzLGJH1cqkXIKAGz-37" value="获取待检查项目" style="text;html=1;align=center;verticalAlign=middle;whiteSpace=wrap;rounded=0;" vertex="1" parent="1">
          <mxGeometry x="253" y="269" width="60" height="30" as="geometry" />
        </mxCell>
      </root>
    </mxGraphModel>
  </diagram>
</mxfile>
